<?xml version="1.0" standalone="no"?>
<!DOCTYPE svg PUBLIC "-//W3C//DTD SVG 20010904//EN"
 "http://www.w3.org/TR/2001/REC-SVG-20010904/DTD/svg10.dtd">
<svg version="1.0" xmlns="http://www.w3.org/2000/svg"
 width="331.000000pt" height="331.000000pt" viewBox="0 0 331.000000 331.000000"
 preserveAspectRatio="xMidYMid meet">

<g transform="translate(0.000000,331.000000) scale(0.100000,-0.100000)"
fill="#000000" stroke="none">
<path d="M3043 3046 c-79 -141 -143 -259 -143 -262 0 -2 9 -4 20 -4 65 0 110
-69 118 -183 l5 -70 -27 7 c-31 8 -33 -2 -5 -38 l21 -27 -46 -457 c-26 -251
-49 -467 -52 -479 -3 -15 -12 -23 -25 -23 -49 0 -119 -65 -119 -110 0 -12 -76
-33 -326 -93 -179 -43 -331 -80 -337 -83 -9 -3 -12 38 -13 153 0 142 -3 167
-28 248 -29 96 -97 233 -146 295 l-29 37 11 118 12 118 -28 23 c-17 15 -24 29
-20 37 5 6 60 77 124 157 228 286 253 321 267 374 17 65 16 90 -2 125 -26 51
-66 54 -151 11 -66 -33 -51 -10 -266 -385 -60 -104 -113 -193 -117 -198 -7 -7
-112 34 -108 43 1 3 77 155 170 338 153 305 167 337 167 385 -1 82 -15 129
-51 161 -26 23 -38 27 -67 22 -42 -6 -134 -67 -161 -105 -10 -14 -74 -189
-141 -389 l-123 -364 -61 7 c-34 4 -63 9 -64 10 -2 2 26 104 62 227 110 376
110 375 96 443 -16 78 -56 120 -103 111 -39 -8 -113 -79 -126 -120 -10 -34
-51 -299 -79 -516 l-18 -135 -29 -5 c-24 -4 -43 -25 -102 -109 l-72 -103 -98
-48 c-188 -93 -329 -233 -418 -415 -73 -148 -90 -225 -89 -395 1 -176 20 -258
94 -405 27 -56 50 -103 50 -107 0 -17 -110 -51 -170 -51 -112 -1 -160 41 -185
160 -18 83 -18 112 -4 226 9 66 16 90 28 94 83 25 117 68 108 136 -14 101
-139 140 -209 65 -40 -43 -40 -114 1 -160 28 -32 29 -36 20 -83 -15 -79 -12
-273 5 -328 21 -71 61 -123 113 -148 38 -18 57 -21 136 -17 76 4 102 9 146 32
l54 28 36 -43 c54 -65 171 -153 269 -202 48 -24 93 -46 99 -48 9 -3 3 -62 -20
-203 l-32 -199 -75 -31 c-57 -24 -75 -36 -75 -51 0 -31 35 -29 119 6 89 37 81
18 122 279 15 96 28 176 29 177 1 2 36 -4 79 -12 122 -23 269 -16 407 20 l27
7 7 -179 c4 -98 10 -191 14 -207 5 -22 22 -37 71 -65 88 -50 97 -53 115 -35
21 21 9 34 -70 78 l-63 36 -6 157 c-4 87 -9 175 -12 195 l-6 37 69 35 c218
109 389 307 458 527 l18 57 116 27 c64 15 223 53 353 85 l237 57 22 -24 c13
-12 37 -28 55 -35 26 -9 32 -16 29 -32 -2 -12 -25 -228 -51 -481 l-46 -460
-45 -72 -44 -72 42 -56 42 -55 51 47 c28 26 52 47 54 48 1 1 -9 26 -23 56
l-25 55 53 512 c51 485 55 513 75 528 29 20 52 66 52 102 0 16 -11 46 -25 67
l-26 37 51 486 c50 482 51 487 77 514 26 27 26 28 5 28 -32 0 -28 33 11 104
42 75 75 101 127 100 22 -1 40 3 40 8 0 5 -25 125 -55 266 -30 142 -55 268
-57 281 -2 18 -41 -43 -145 -233z m-1723 -914 c167 -59 307 -173 393 -320 64
-111 104 -326 80 -436 -11 -52 -53 -74 -172 -89 -128 -16 -236 0 -302 45 -38
26 -47 37 -42 53 3 10 8 44 12 75 42 369 -332 633 -664 469 l-59 -30 29 32
c105 113 235 190 370 219 72 16 293 5 355 -18z m112 -858 c95 -21 252 -24 296
-5 18 7 36 11 39 7 4 -3 -15 -50 -42 -104 -40 -81 -61 -111 -134 -182 -139
-138 -287 -200 -481 -200 -119 0 -202 20 -308 72 -132 65 -264 201 -320 332
-13 29 -12 29 30 -10 197 -181 478 -171 660 24 58 62 67 68 108 71 25 1 47 5
49 7 7 7 27 5 103 -12z"/>
</g>
</svg>
