<?xml version="1.0" standalone="no"?>
<!DOCTYPE svg PUBLIC "-//W3C//DTD SVG 20010904//EN"
 "http://www.w3.org/TR/2001/REC-SVG-20010904/DTD/svg10.dtd">
<svg xmlns="http://www.w3.org/2000/svg"
     width="1080" height="1080"
     viewBox="0 0 1080 1080"
     preserveAspectRatio="xMidYMid meet">

  <!-- Black rounded background -->
  <rect x="0" y="0" width="1080" height="1080" rx="96" ry="96" fill="#000" />

  <!-- Nested SVG: keeps original viewBox & paths untouched,
       scaled to height 1080 and horizontally centered (864x1080 at x=108) -->
  <svg x="108" y="-20" width="864" height="1080" viewBox="0 0 564 705"
       preserveAspectRatio="xMidYMid meet" overflow="visible">
    <g transform="translate(0.000000,705.000000) scale(0.100000,-0.100000)"
       fill="#ffffff" stroke="none">
      <path d="M2654 6585 c-539 -79 -947 -338 -1065 -675 -20 -55 -23 -86 -24 -195
0 -161 14 -216 97 -385 l62 -125 254 -256 c273 -276 324 -336 377 -444 48 -97
65 -172 65 -288 0 -254 -101 -496 -384 -922 -177 -266 -267 -418 -376 -635
-141 -282 -230 -536 -276 -785 -26 -140 -26 -417 0 -535 125 -575 616 -926
1466 -1046 97 -14 195 -18 440 -18 287 -1 325 1 433 22 366 70 598 205 691
402 30 62 31 71 31 190 0 145 -12 188 -96 338 -54 97 -71 166 -59 233 6 32 25
58 104 139 107 110 135 160 136 235 0 90 -71 164 -181 187 -63 13 -78 28 -29
28 42 0 143 35 190 66 21 14 50 42 64 62 79 115 56 199 -100 363 -49 52 -87
102 -94 124 -14 43 -8 96 15 132 41 62 181 118 423 169 203 42 267 92 260 204
-4 47 -15 74 -83 190 -290 495 -614 1325 -720 1840 -86 419 -187 705 -320 911
-58 89 -159 196 -241 255 -129 92 -367 183 -573 218 -115 19 -356 20 -487 1z
m1028 -1766 c193 -41 323 -227 289 -413 -29 -158 -141 -269 -301 -298 -236
-44 -456 176 -412 412 22 121 89 213 192 265 83 42 148 52 232 34z"/>
      <path d="M767 4820 c-279 -71 -376 -411 -175 -613 27 -27 74 -60 106 -75 48
-23 70 -27 147 -27 76 0 99 4 147 27 79 37 142 98 181 177 29 59 32 74 32 156
0 82 -3 97 -33 157 -59 121 -170 194 -306 203 -34 2 -78 0 -99 -5z"/>
    </g>
  </svg>

</svg>